<svg width="177" height="56" viewBox="0 0 177 56" fill="none" xmlns="http://www.w3.org/2000/svg">
<path d="M76.82 9.79001V51.74H65.78V15.47H69.73L58.69 9.94001V4.26001H65.78L76.82 9.79001Z" fill="#62BB46"/>
<path d="M47.48 15.47H11.05L0 10.03V4.26001H36.43L47.48 9.79001V15.47Z" fill="#62BB46"/>
<path d="M11.06 15.47V22.4H36.43L47.48 27.92V33.6H11.22L0 28.08V15.47H11.06Z" fill="#62BB46"/>
<path d="M47.48 46.06V51.74H11.05L0 46.22V33.6H11.22V40.53H36.43L47.48 46.06Z" fill="#62BB46"/>
<path d="M90.22 4.96002H94.47V18.13H97.72V4.96002H101.95V18.13H105.22V4.96002H109.45V22.16H90.22V4.96002Z" fill="black"/>
<path d="M111.86 4.96002H116.11V11.69H117.17L120 4.96002H124.91L120.86 13.56L125.06 22.16H120.15L117.2 15.45H116.12V22.16H111.87V4.96002H111.86Z" fill="black"/>
<path d="M130.3 4.96002H134.58L140.04 22.16H135.62L134.91 19.58H130L129.29 22.16H124.84L130.3 4.96002ZM134.01 16.09L133.2 13.14C132.9 12.01 132.63 10.81 132.44 9.43002C132.24 10.81 132 12.01 131.7 13.14L130.87 16.09H134.01Z" fill="black"/>
<path d="M146.57 21C142.51 20.68 139.59 17.88 139.59 13.55C139.59 9.4 142.51 6.42 146.57 6.11V4H150.62V6.11C154.65 6.48 157.52 9.43 157.52 13.55C157.52 17.68 154.64 20.63 150.62 21V23.11H146.57V21ZM146.67 9.8C144.7 10.02 143.92 11.47 143.92 13.56C143.92 15.65 144.78 17.1 146.67 17.32V9.8ZM153.2 13.56C153.2 11.47 152.41 10.05 150.55 9.8V17.32C152.42 17.07 153.2 15.64 153.2 13.56Z" fill="black"/>
<path d="M159.06 4.96002H163.31V10.71H165.23C168.52 10.71 171.15 12.55 171.15 16.44C171.15 20.33 168.52 22.17 165.23 22.17H159.06V4.96002ZM164.89 18.3C166.12 18.3 166.91 17.66 166.91 16.43C166.91 15.23 166.1 14.56 164.89 14.56H163.32V18.3H164.89V18.3ZM177 22.16H172.75V4.96002H177V22.16Z" fill="black"/>
<path d="M90.22 34.46H94.47V41.19H95.53L98.36 34.46H103.27L99.22 43.06L103.42 51.66H98.51L95.56 44.95H94.48V51.66H90.23V34.46H90.22Z" fill="black"/>
<path d="M117.48 34.46L112.84 47.43C111.49 51.14 109.57 52 107.61 52C106.65 52 106.09 51.9 105.3 51.66V47.9C106.01 48.07 106.63 48.1 107.14 48C107.83 47.93 108.25 47.51 108.66 46.82L103.21 34.46H107.71L110.68 42.18L112.97 34.46H117.48Z" fill="black"/>
<path d="M118.65 34.46H131.25V51.66H127.02V38.49H122.89V51.66H118.64V34.46H118.65Z" fill="black"/>
<path d="M133.69 34.46H143.84V38.24H137.94V41.16H143.27V44.85H137.94V47.82H143.99V51.65H133.69V34.46Z" fill="black"/>
</svg>
